<svg width="40" height="40" viewBox="0 0 40 40" fill="none" xmlns="http://www.w3.org/2000/svg">
<g clip-path="url(#clip0_1134_462)">
<path fill-rule="evenodd" clip-rule="evenodd" d="M15 31.25C15 31.5815 15.1317 31.8995 15.3661 32.1339C15.6005 32.3683 15.9185 32.5 16.25 32.5H36.25C36.5815 32.5 36.8995 32.3683 37.1339 32.1339C37.3683 31.8995 37.5 31.5815 37.5 31.25V8.75C37.5 8.41848 37.3683 8.10054 37.1339 7.86612C36.8995 7.6317 36.5815 7.5 36.25 7.5H16.25C15.9185 7.5 15.6005 7.6317 15.3661 7.86612C15.1317 8.10054 15 8.41848 15 8.75V13.75C15 14.0815 14.8683 14.3995 14.6339 14.6339C14.3995 14.8683 14.0815 15 13.75 15C13.4185 15 13.1005 14.8683 12.8661 14.6339C12.6317 14.3995 12.5 14.0815 12.5 13.75V8.75C12.5 7.75544 12.8951 6.80161 13.5983 6.09835C14.3016 5.39509 15.2554 5 16.25 5H36.25C37.2446 5 38.1984 5.39509 38.9017 6.09835C39.6049 6.80161 40 7.75544 40 8.75V31.25C40 32.2446 39.6049 33.1984 38.9017 33.9017C38.1984 34.6049 37.2446 35 36.25 35H16.25C15.2554 35 14.3016 34.6049 13.5983 33.9017C12.8951 33.1984 12.5 32.2446 12.5 31.25V26.25C12.5 25.9185 12.6317 25.6005 12.8661 25.3661C13.1005 25.1317 13.4185 25 13.75 25C14.0815 25 14.3995 25.1317 14.6339 25.3661C14.8683 25.6005 15 25.9185 15 26.25V31.25Z" fill="white"/>
<path fill-rule="evenodd" clip-rule="evenodd" d="M0.365281 20.8846C0.248873 20.7685 0.156516 20.6306 0.0935 20.4787C0.0304839 20.3268 -0.00195313 20.164 -0.00195312 19.9996C-0.00195313 19.8352 0.0304839 19.6724 0.0935 19.5205C0.156516 19.3687 0.248873 19.2307 0.365281 19.1146L7.86528 11.6146C7.9815 11.4984 8.11947 11.4062 8.27132 11.3433C8.42317 11.2804 8.58592 11.248 8.75028 11.248C8.91464 11.248 9.07739 11.2804 9.22924 11.3433C9.38109 11.4062 9.51906 11.4984 9.63528 11.6146C9.7515 11.7308 9.84369 11.8688 9.90659 12.0207C9.96949 12.1725 10.0019 12.3353 10.0019 12.4996C10.0019 12.664 9.96949 12.8267 9.90659 12.9786C9.84369 13.1304 9.7515 13.2684 9.63528 13.3846L4.26778 18.7496H26.2503C26.5818 18.7496 26.8997 18.8813 27.1342 19.1157C27.3686 19.3502 27.5003 19.6681 27.5003 19.9996C27.5003 20.3311 27.3686 20.6491 27.1342 20.8835C26.8997 21.1179 26.5818 21.2496 26.2503 21.2496H4.26778L9.63528 26.6146C9.7515 26.7308 9.84369 26.8688 9.90659 27.0207C9.96949 27.1725 10.0019 27.3353 10.0019 27.4996C10.0019 27.664 9.96949 27.8267 9.90659 27.9786C9.84369 28.1304 9.7515 28.2684 9.63528 28.3846C9.51906 28.5008 9.38109 28.593 9.22924 28.6559C9.07739 28.7188 8.91464 28.7512 8.75028 28.7512C8.58592 28.7512 8.42317 28.7188 8.27132 28.6559C8.11947 28.593 7.9815 28.5008 7.86528 28.3846L0.365281 20.8846Z" fill="white"/>
</g>
<defs>
<clipPath id="clip0_1134_462">
<rect width="40" height="40" fill="white"/>
</clipPath>
</defs>
</svg>
