<svg width="47" height="38" viewBox="0 0 47 38" fill="none" xmlns="http://www.w3.org/2000/svg">
<path d="M1 18.1123V31.5313C1 33.0536 2.14021 34.3346 3.65228 34.511L10.8484 35.3508M1 18.1123V4C1 2.34315 2.34315 1 4 1H10.8484M1 18.1123L10.8484 18.75M20.6967 36.5V19.3892M20.6967 36.5L43.5995 27.4781C44.7462 27.0264 45.5 25.9193 45.5 24.6869V16.9815M20.6967 36.5L10.8484 35.3508M20.6967 19.3892L45.5 16.9815M20.6967 19.3892L10.8484 18.75M45.5 16.9815V9.36082C45.5 7.97567 44.5517 6.7706 43.2054 6.44492L20.6967 1M45.5 16.9815L20.6967 19.3877M20.6967 19.3877V1M20.6967 19.3877L10.8484 18.75M20.6967 1H10.8484M10.8484 35.3508V18.75M10.8484 18.75V1M14.1311 8.81651V12.7248M14.1311 26V29.9083M6.47131 25.4266V29.3349M6.47131 8.16514V12.0734" stroke="white" stroke-width="2"/>
</svg>
