<svg width="40" height="40" viewBox="0 0 40 40" fill="none" xmlns="http://www.w3.org/2000/svg">
<path d="M19.5833 17.625C22.1802 17.625 24.6708 18.6566 26.5071 20.4929C28.3434 22.3292 29.375 24.8198 29.375 27.4167V39.1667H25.4583V27.4167C25.4584 25.9181 24.8859 24.4762 23.8578 23.3859C22.8298 22.2956 21.424 21.6394 19.928 21.5515L19.5833 21.5417C18.0848 21.5416 16.6429 22.1141 15.5526 23.1422C14.4623 24.1702 13.806 25.576 13.7181 27.072L13.7083 27.4167V39.1667H9.79167V27.4167C9.79167 24.8198 10.8233 22.3292 12.6596 20.4929C14.4959 18.6566 16.9864 17.625 19.5833 17.625ZM6.85417 23.5C7.4025 23.5013 7.93125 23.5627 8.44042 23.6841C8.10681 24.6812 7.90856 25.7186 7.85096 26.7685L7.83333 27.4167V27.5851C7.60819 27.5047 7.37407 27.4521 7.13617 27.4284L6.85417 27.4167C6.12424 27.4167 5.42046 27.6884 4.87996 28.1789C4.33945 28.6695 4.00093 29.3437 3.93038 30.0702L3.91667 30.3542V39.1667H0V30.3542C0 28.5363 0.722133 26.7929 2.00754 25.5075C3.29294 24.2221 5.03633 23.5 6.85417 23.5ZM32.3125 23.5C34.1303 23.5 35.8737 24.2221 37.1591 25.5075C38.4445 26.7929 39.1667 28.5363 39.1667 30.3542V39.1667H35.25V30.3542C35.25 29.6242 34.9783 28.9205 34.4877 28.38C33.9972 27.8394 33.323 27.5009 32.5965 27.4304L32.3125 27.4167C31.9678 27.418 31.6414 27.4735 31.3333 27.5831V27.4167C31.3333 26.1124 31.1218 24.8591 30.7302 23.688C31.2354 23.5646 31.7681 23.5 32.3125 23.5ZM6.85417 11.75C8.15262 11.75 9.3979 12.2658 10.316 13.184C11.2342 14.1021 11.75 15.3474 11.75 16.6458C11.75 17.9443 11.2342 19.1896 10.316 20.1077C9.3979 21.0259 8.15262 21.5417 6.85417 21.5417C5.55571 21.5417 4.31044 21.0259 3.39229 20.1077C2.47414 19.1896 1.95833 17.9443 1.95833 16.6458C1.95833 15.3474 2.47414 14.1021 3.39229 13.184C4.31044 12.2658 5.55571 11.75 6.85417 11.75ZM32.3125 11.75C33.611 11.75 34.8562 12.2658 35.7744 13.184C36.6925 14.1021 37.2083 15.3474 37.2083 16.6458C37.2083 17.9443 36.6925 19.1896 35.7744 20.1077C34.8562 21.0259 33.611 21.5417 32.3125 21.5417C31.014 21.5417 29.7688 21.0259 28.8506 20.1077C27.9325 19.1896 27.4167 17.9443 27.4167 16.6458C27.4167 15.3474 27.9325 14.1021 28.8506 13.184C29.7688 12.2658 31.014 11.75 32.3125 11.75ZM6.85417 15.6667C6.59448 15.6667 6.34542 15.7698 6.16179 15.9535C5.97816 16.1371 5.875 16.3861 5.875 16.6458C5.875 16.9055 5.97816 17.1546 6.16179 17.3382C6.34542 17.5218 6.59448 17.625 6.85417 17.625C7.11386 17.625 7.36291 17.5218 7.54654 17.3382C7.73017 17.1546 7.83333 16.9055 7.83333 16.6458C7.83333 16.3861 7.73017 16.1371 7.54654 15.9535C7.36291 15.7698 7.11386 15.6667 6.85417 15.6667ZM32.3125 15.6667C32.0528 15.6667 31.8038 15.7698 31.6201 15.9535C31.4365 16.1371 31.3333 16.3861 31.3333 16.6458C31.3333 16.9055 31.4365 17.1546 31.6201 17.3382C31.8038 17.5218 32.0528 17.625 32.3125 17.625C32.5722 17.625 32.8212 17.5218 33.0049 17.3382C33.1885 17.1546 33.2917 16.9055 33.2917 16.6458C33.2917 16.3861 33.1885 16.1371 33.0049 15.9535C32.8212 15.7698 32.5722 15.6667 32.3125 15.6667ZM19.5833 0C21.6609 0 23.6533 0.825295 25.1223 2.29433C26.5914 3.76337 27.4167 5.7558 27.4167 7.83333C27.4167 9.91086 26.5914 11.9033 25.1223 13.3723C23.6533 14.8414 21.6609 15.6667 19.5833 15.6667C17.5058 15.6667 15.5134 14.8414 14.0443 13.3723C12.5753 11.9033 11.75 9.91086 11.75 7.83333C11.75 5.7558 12.5753 3.76337 14.0443 2.29433C15.5134 0.825295 17.5058 0 19.5833 0ZM19.5833 3.91667C18.5446 3.91667 17.5484 4.32931 16.8138 5.06383C16.0793 5.79835 15.6667 6.79457 15.6667 7.83333C15.6667 8.8721 16.0793 9.86832 16.8138 10.6028C17.5484 11.3374 18.5446 11.75 19.5833 11.75C20.6221 11.75 21.6183 11.3374 22.3528 10.6028C23.0874 9.86832 23.5 8.8721 23.5 7.83333C23.5 6.79457 23.0874 5.79835 22.3528 5.06383C21.6183 4.32931 20.6221 3.91667 19.5833 3.91667Z" fill="white"/>
</svg>
