<svg width="40" height="40" viewBox="0 0 40 40" fill="none" xmlns="http://www.w3.org/2000/svg">
<path d="M31.25 40C33.5706 40 35.7962 39.0781 37.4372 37.4372C39.0781 35.7962 40 33.5706 40 31.25C40 28.9294 39.0781 26.7038 37.4372 25.0628C35.7962 23.4219 33.5706 22.5 31.25 22.5C28.9294 22.5 26.7038 23.4219 25.0628 25.0628C23.4219 26.7038 22.5 28.9294 22.5 31.25C22.5 33.5706 23.4219 35.7962 25.0628 37.4372C26.7038 39.0781 28.9294 40 31.25 40ZM32.5 27.5V30H35C35.3315 30 35.6495 30.1317 35.8839 30.3661C36.1183 30.6005 36.25 30.9185 36.25 31.25C36.25 31.5815 36.1183 31.8995 35.8839 32.1339C35.6495 32.3683 35.3315 32.5 35 32.5H32.5V35C32.5 35.3315 32.3683 35.6495 32.1339 35.8839C31.8995 36.1183 31.5815 36.25 31.25 36.25C30.9185 36.25 30.6005 36.1183 30.3661 35.8839C30.1317 35.6495 30 35.3315 30 35V32.5H27.5C27.1685 32.5 26.8505 32.3683 26.6161 32.1339C26.3817 31.8995 26.25 31.5815 26.25 31.25C26.25 30.9185 26.3817 30.6005 26.6161 30.3661C26.8505 30.1317 27.1685 30 27.5 30H30V27.5C30 27.1685 30.1317 26.8505 30.3661 26.6161C30.6005 26.3817 30.9185 26.25 31.25 26.25C31.5815 26.25 31.8995 26.3817 32.1339 26.6161C32.3683 26.8505 32.5 27.1685 32.5 27.5ZM27.5 12.5C27.5 14.4891 26.7098 16.3968 25.3033 17.8033C23.8968 19.2098 21.9891 20 20 20C18.0109 20 16.1032 19.2098 14.6967 17.8033C13.2902 16.3968 12.5 14.4891 12.5 12.5C12.5 10.5109 13.2902 8.60322 14.6967 7.1967C16.1032 5.79018 18.0109 5 20 5C21.9891 5 23.8968 5.79018 25.3033 7.1967C26.7098 8.60322 27.5 10.5109 27.5 12.5ZM20 17.5C21.3261 17.5 22.5979 16.9732 23.5355 16.0355C24.4732 15.0979 25 13.8261 25 12.5C25 11.1739 24.4732 9.90215 23.5355 8.96447C22.5979 8.02678 21.3261 7.5 20 7.5C18.6739 7.5 17.4021 8.02678 16.4645 8.96447C15.5268 9.90215 15 11.1739 15 12.5C15 13.8261 15.5268 15.0979 16.4645 16.0355C17.4021 16.9732 18.6739 17.5 20 17.5Z" fill="white"/>
<path d="M20.64 35C20.3537 34.188 20.1617 33.3458 20.0675 32.49H7.5C7.5025 31.875 7.885 30.025 9.58 28.33C11.21 26.7 14.2775 25 20 25C20.65 25 21.2667 25.0208 21.85 25.0625C22.415 24.21 23.09 23.4375 23.86 22.7675C22.6933 22.5925 21.4067 22.5033 20 22.5C7.5 22.5 5 30 5 32.5C5 35 7.5 35 7.5 35H20.64Z" fill="white"/>
</svg>
